{"accessors" : [{"bufferView" : 0, "byteOffset" : 0, "componentType" : 5123, "count" : 4680, "type" : "SCALAR", "max" : [4227], "min" : [0]}, {"bufferView" : 1, "byteOffset" : 0, "componentType" : 5126, "count" : 4228, "type" : "VEC3", "max" : [3.434000015258789, 3.150040626525879, 1.9998958110809326], "min" : [-3, 0, -2], "name" : "POSITION"}, {"bufferView" : 1, "byteOffset" : 12, "componentType" : 5126, "count" : 4228, "type" : "VEC3", "max" : [-1.0000044107437134, 4.768397161569737E-07, 4.768397161569737E-07], "min" : [-1.0000044107437134, -4.768397161569737E-07, -4.768397161569737E-07], "name" : "NORMAL"}], "asset" : {"generator" : "Aspose.3D 23.9.0", "version" : "2.0"}, "buffers" : [{"uri" : "buffer.bin", "byteLength" : 121688}], "bufferViews" : [{"buffer" : 0, "byteOffset" : 0, "byteLength" : 9360, "target" : 34963}, {"buffer" : 0, "byteOffset" : 9364, "byteLength" : 112320, "byteStride" : 24, "target" : 34962}], "meshes" : [{"primitives" : [{"attributes" : {"POSITION" : 1, "NORMAL" : 2}, "indices" : 0, "mode" : 4}], "name" : ""}], "nodes" : [{"mesh" : 0, "name" : ""}], "scene" : 0, "scenes" : [{"nodes" : [0]}]}