{"accessors" : [{"bufferView" : 0, "byteOffset" : 0, "componentType" : 5123, "count" : 1332, "type" : "SCALAR", "max" : [1204], "min" : [0]}, {"bufferView" : 1, "byteOffset" : 0, "componentType" : 5126, "count" : 1205, "type" : "VEC3", "max" : [3.033022403717041, 3.3131542205810547, 1.8724188804626465], "min" : [-3.1733450889587402, -3.133439064025879, -6.873402118682861], "name" : "POSITION"}, {"bufferView" : 1, "byteOffset" : 12, "componentType" : 5126, "count" : 1205, "type" : "VEC3", "max" : [-1.0000044107437134, 4.768397161569737E-07, 4.768397161569737E-07], "min" : [-1.0000044107437134, -4.768397161569737E-07, -4.768397161569737E-07], "name" : "NORMAL"}], "asset" : {"generator" : "Aspose.3D 23.9.0", "version" : "2.0"}, "buffers" : [{"uri" : "buffer.bin", "byteLength" : 34640}], "bufferViews" : [{"buffer" : 0, "byteOffset" : 0, "byteLength" : 2664, "target" : 34963}, {"buffer" : 0, "byteOffset" : 2668, "byteLength" : 31968, "byteStride" : 24, "target" : 34962}], "meshes" : [{"primitives" : [{"attributes" : {"POSITION" : 1, "NORMAL" : 2}, "indices" : 0, "mode" : 4}], "name" : ""}], "nodes" : [{"mesh" : 0, "name" : ""}], "scene" : 0, "scenes" : [{"nodes" : [0]}]}